<svg width="256" height="256" viewBox="0 0 256 256" fill="none" xmlns="http://www.w3.org/2000/svg">
<rect width="256" height="256" rx="48" fill="#35353F"/>
<path d="M215.429 142.899C215.429 134.503 213.719 127.13 210.3 120.781C207.088 114.631 202.708 109.778 197.162 106.222L196.621 105.882C190.922 102.196 184.446 100.352 177.193 100.352C173.566 100.352 170.095 100.967 166.779 102.195C163.567 103.424 160.718 105.011 158.231 106.957C156.001 108.609 154.188 110.304 152.791 112.039V98.6773C153.366 98.7985 153.962 98.8637 154.573 98.8637C159.267 98.8635 163.073 95.1028 163.073 90.4637C163.073 85.8247 159.267 82.0639 154.573 82.0637C153.962 82.0637 153.366 82.1288 152.791 82.25V79.7691C152.791 77.1069 151.91 74.9052 150.149 73.1645C148.387 71.3214 146.159 70.4001 143.466 70.4C140.772 70.4 138.544 71.3215 136.782 73.1645C135.021 74.9052 134.139 77.1069 134.139 79.7691V82.1832C133.676 82.1061 133.201 82.0637 132.716 82.0637C128.022 82.0637 124.216 85.8246 124.216 90.4637C124.216 95.1029 128.022 98.8637 132.716 98.8637C133.201 98.8637 133.676 98.8213 134.139 98.7441V176.231L134.15 176.743C134.253 179.275 135.131 181.357 136.782 182.989C138.544 184.73 140.772 185.6 143.466 185.6C146.159 185.6 148.387 184.73 150.149 182.989C151.91 181.146 152.791 178.893 152.791 176.231V175.347C153.881 176.409 155.124 177.473 156.521 178.535C159.319 180.583 162.531 182.272 166.158 183.603C169.558 184.851 173.186 185.514 177.041 185.592L177.815 185.6C184.861 185.6 191.181 183.807 196.777 180.223C202.476 176.537 206.984 171.52 210.3 165.171C213.612 158.921 215.32 151.759 215.424 143.683L215.429 142.899ZM182.983 142.899C182.983 139.918 182.398 137.882 181.638 136.421L181.532 136.216L181.432 136.007C180.627 134.328 179.68 133.326 178.592 132.609L178.504 132.552L178.419 132.493C177.847 132.104 176.879 131.648 174.861 131.648C172.852 131.648 171.744 132.103 170.977 132.609C169.833 133.363 168.791 134.439 167.882 136.21C167.695 136.597 167.52 137.023 167.362 137.492V142.701L166.592 142.298C166.587 142.494 166.586 142.695 166.586 142.899C166.586 143.164 166.591 143.424 166.6 143.68L167.362 143.364V148.326C167.534 148.868 167.73 149.381 167.949 149.87C168.843 151.565 169.861 152.608 170.977 153.343C171.744 153.849 172.852 154.304 174.861 154.304V168.704C170.303 168.704 166.313 167.578 162.894 165.325C159.475 163.073 156.78 160 154.812 156.109C153.063 152.365 152.134 148.261 152.025 143.797L152.014 142.899C152.014 137.984 152.946 133.632 154.812 129.843C156.78 125.952 159.475 122.881 162.894 120.628C166.313 118.375 170.302 117.248 174.861 117.248L175.709 117.261C179.911 117.393 183.566 118.516 186.675 120.628C190.094 122.881 192.736 125.952 194.601 129.843C196.569 133.632 197.555 137.984 197.555 142.899L197.543 143.797C197.427 148.261 196.446 152.365 194.601 156.109C192.736 160 190.094 163.073 186.675 165.325C183.359 167.578 179.421 168.704 174.861 168.704V154.304C176.879 154.304 177.847 153.848 178.419 153.459L178.504 153.4L178.592 153.343C179.68 152.626 180.627 151.624 181.432 149.945L181.467 149.873L181.502 149.802C182.423 147.933 182.983 145.712 182.983 142.899ZM230 142.899C230 153.265 227.876 163.045 223.208 171.853L223.206 171.852C218.813 180.233 212.666 187.157 204.757 192.273L204.703 192.308C196.611 197.491 187.506 200 177.815 200C172.063 200 166.447 199.07 161.085 197.102C159.867 196.655 158.671 196.171 157.497 195.651C153.322 198.612 148.448 200 143.466 200C137.255 200 131.209 197.846 126.479 193.171C124.146 190.867 122.459 188.258 121.334 185.496C116.988 189.47 111.944 192.623 106.334 194.982L106.335 194.984C98.3674 198.378 89.8588 200 80.9832 200C72.5677 200 64.5788 198.992 57.1659 196.768L57.0532 196.734L56.9394 196.698C49.0693 194.198 41.8795 189.997 35.3574 184.457L35.3562 184.459C35.3272 184.434 35.2985 184.409 35.2696 184.385C35.2631 184.379 35.256 184.374 35.2494 184.368L35.2506 184.367C32.5767 182.109 30.2875 179.348 28.6266 176.066C27.0103 172.871 26 169.246 26 165.324C26.0001 159.24 28.2881 153.679 32.4473 149.312L32.4556 149.302L32.4651 149.293C36.1939 145.391 40.9175 142.995 46.114 142.259C44.3649 141.093 42.6971 139.821 41.1252 138.434L40.9201 138.254L40.722 138.065C36.501 134.048 33.2164 129.32 30.9828 123.959L30.9556 123.893L30.9283 123.825C28.6992 118.318 27.71 112.476 27.71 106.496C27.71 97.2913 30.1204 88.5605 35.5708 81.0523L35.6313 80.9691L35.6918 80.8871C40.8966 73.9282 47.7832 68.8003 55.8994 65.423C63.7918 62.139 72.2715 60.6078 81.1385 60.6078C85.5315 60.6078 89.8317 60.9693 94.0202 61.7082C97.9387 58.6732 102.876 56.8637 108.241 56.8637L108.836 56.8719C115.337 57.0346 121.169 59.8557 125.263 64.2758C125.619 63.8679 125.993 63.4688 126.384 63.0781C131.025 58.3314 137.078 56 143.466 56L144.072 56.007C150.192 56.1491 155.972 58.4493 160.452 62.982L160.888 63.425C162.91 65.5281 164.434 67.8784 165.495 70.3777C171.441 73.5421 175.82 79.2085 177.19 85.952H177.193C186.985 85.952 196.181 88.4599 204.345 93.6699L205.104 94.148C212.836 99.1078 218.86 105.842 223.161 114.015C227.877 122.77 230 132.539 230 142.899Z" fill="#121215"/>
<path d="M177.515 100.16C184.815 100.16 191.334 102.016 197.07 105.728C202.911 109.337 207.5 114.338 210.837 120.731C214.279 127.124 216 134.548 216 143.003C216 151.458 214.279 158.933 210.837 165.429C207.5 171.822 202.963 176.875 197.227 180.587C191.595 184.196 185.233 186 178.14 186C173.969 186 170.057 185.33 166.407 183.989C162.757 182.649 159.524 180.948 156.708 178.885C153.996 176.823 151.858 174.761 150.293 172.699C148.833 170.533 148.103 168.729 148.103 167.285L152.953 165.275V176.565C152.953 179.246 152.066 181.515 150.293 183.371C148.52 185.124 146.278 186 143.566 186C140.855 186 138.612 185.124 136.839 183.371C135.066 181.618 134.18 179.349 134.18 176.565V79.4347C134.18 76.7538 135.066 74.5369 136.839 72.784C138.612 70.928 140.855 70 143.566 70C146.278 70 148.52 70.928 150.293 72.784C152.066 74.5369 152.953 76.7538 152.953 79.4347V118.72L150.293 117.328C150.293 115.988 151.023 114.389 152.484 112.533C153.944 110.574 155.925 108.667 158.428 106.811C160.932 104.852 163.8 103.253 167.033 102.016C170.37 100.779 173.864 100.16 177.515 100.16ZM175.168 117.173C170.579 117.173 166.564 118.308 163.122 120.576C159.68 122.844 156.968 125.938 154.987 129.856C153.109 133.671 152.171 138.053 152.171 143.003C152.171 147.849 153.109 152.283 154.987 156.304C156.968 160.222 159.68 163.316 163.122 165.584C166.564 167.852 170.579 168.987 175.168 168.987C179.757 168.987 183.72 167.852 187.058 165.584C190.5 163.316 193.159 160.222 195.036 156.304C197.018 152.283 198.009 147.849 198.009 143.003C198.009 138.053 197.018 133.671 195.036 129.856C193.159 125.938 190.5 122.844 187.058 120.576C183.72 118.308 179.757 117.173 175.168 117.173Z" fill="#3C90FF"/>
<path d="M80.6756 186C73.3748 186 66.8041 185.124 60.9636 183.371C55.123 181.515 49.5431 178.318 44.224 173.781C42.8681 172.647 41.8252 171.358 41.0951 169.915C40.365 168.471 40 167.028 40 165.584C40 163.212 40.8344 161.15 42.5031 159.397C44.2761 157.541 46.4664 156.613 49.0738 156.613C51.0554 156.613 52.8284 157.232 54.3929 158.469C58.3561 161.666 62.2673 164.089 66.1262 165.739C70.0895 167.388 74.9393 168.213 80.6756 168.213C84.5345 168.213 88.0806 167.646 91.3138 166.512C94.547 165.275 97.1544 163.676 99.136 161.717C101.118 159.655 102.108 157.335 102.108 154.757C102.108 151.664 101.17 149.035 99.2924 146.869C97.4151 144.704 94.547 142.9 90.688 141.456C86.829 139.909 81.9271 138.724 75.9822 137.899C70.3502 137.074 65.3961 135.836 61.12 134.187C56.8439 132.434 53.2456 130.268 50.3253 127.691C47.5093 125.01 45.3713 121.916 43.9111 118.411C42.451 114.802 41.7209 110.78 41.7209 106.347C41.7209 99.6444 43.4418 93.9217 46.8836 89.1786C50.4296 84.4355 55.1751 80.8266 61.12 78.352C67.0649 75.8773 73.6356 74.64 80.832 74.64C87.6113 74.64 93.869 75.6711 99.6053 77.7333C105.446 79.6924 110.191 82.2186 113.842 85.312C116.866 87.6835 118.379 90.416 118.379 93.5093C118.379 95.7777 117.492 97.84 115.719 99.696C113.946 101.552 111.86 102.48 109.461 102.48C107.897 102.48 106.489 102.016 105.237 101.088C103.569 99.6444 101.326 98.304 98.5102 97.0666C95.6942 95.7262 92.7218 94.6435 89.5929 93.8186C86.464 92.8906 83.5437 92.4266 80.832 92.4266C76.3473 92.4266 72.5404 92.9937 69.4116 94.128C66.387 95.2622 64.0924 96.8089 62.528 98.768C60.9636 100.727 60.1813 102.996 60.1813 105.573C60.1813 108.667 61.0679 111.244 62.8409 113.307C64.7182 115.266 67.3778 116.864 70.8196 118.101C74.2613 119.236 78.381 120.267 83.1787 121.195C89.4364 122.329 94.912 123.669 99.6053 125.216C104.403 126.763 108.366 128.773 111.495 131.248C114.624 133.62 116.971 136.661 118.535 140.373C120.1 143.982 120.882 148.416 120.882 153.675C120.882 160.377 119.004 166.151 115.25 170.997C111.495 175.844 106.541 179.556 100.388 182.133C94.3384 184.711 87.7677 186 80.6756 186Z" fill="#3EE831"/>
<path d="M104.445 97.4533C104.445 102.125 100.614 105.912 95.8892 105.912C91.1641 105.912 87.3337 102.125 87.3337 97.4533C87.3337 92.7819 91.1641 88.995 95.8892 88.995C100.614 88.995 104.445 92.7819 104.445 97.4533Z" fill="white"/>
<path d="M116.667 79.3283C116.667 83.9997 112.837 87.7866 108.111 87.7866C103.386 87.7866 99.5559 83.9997 99.5559 79.3283C99.5559 74.6569 103.386 70.87 108.111 70.87C112.837 70.87 116.667 74.6569 116.667 79.3283Z" fill="white"/>
<path d="M113 81.1408C113 83.4765 111.085 85.37 108.723 85.37C106.36 85.37 104.445 83.4765 104.445 81.1408C104.445 78.8051 106.36 76.9116 108.723 76.9116C111.085 76.9116 113 78.8051 113 81.1408Z" fill="black"/>
<path d="M141.302 90.2033C141.302 94.8747 137.472 98.6617 132.747 98.6617C128.021 98.6617 124.191 94.8747 124.191 90.2033C124.191 85.5319 128.021 81.745 132.747 81.745C137.472 81.745 141.302 85.5319 141.302 90.2033Z" fill="white"/>
<path d="M137.635 88.3908C137.635 90.7265 135.72 92.62 133.358 92.62C130.995 92.62 129.08 90.7265 129.08 88.3908C129.08 86.0551 130.995 84.1617 133.358 84.1617C135.72 84.1617 137.635 86.0551 137.635 88.3908Z" fill="black"/>
<path d="M163.302 90.2033C163.302 94.8747 159.472 98.6617 154.747 98.6617C150.021 98.6617 146.191 94.8747 146.191 90.2033C146.191 85.5319 150.021 81.745 154.747 81.745C159.472 81.745 163.302 85.5319 163.302 90.2033Z" fill="white"/>
<path d="M158.413 88.3908C158.413 90.7265 156.498 92.62 154.135 92.62C151.773 92.62 149.858 90.7265 149.858 88.3908C149.858 86.0551 151.773 84.1617 154.135 84.1617C156.498 84.1617 158.413 86.0551 158.413 88.3908Z" fill="black"/>
<path d="M102 98.0575C102 100.393 100.085 102.287 97.7225 102.287C95.36 102.287 93.4448 100.393 93.4448 98.0575C93.4448 95.7218 95.36 93.8283 97.7225 93.8283C100.085 93.8283 102 95.7218 102 98.0575Z" fill="black"/>
</svg>
