<svg width="597" height="120" viewBox="0 0 597 120" fill="none" xmlns="http://www.w3.org/2000/svg">
<path d="M213.649 44.7676C213.649 42.4638 212.923 40.5863 211.473 39.1357C210.022 37.6853 208.187 36.96 205.969 36.96C203.75 36.96 201.915 37.7278 200.465 39.2637C199.014 40.7142 198.289 42.5491 198.289 44.7676V44.9756C197.529 44.2595 196.677 43.5494 195.729 42.8477C193.511 41.141 190.865 39.7334 187.793 38.624C184.721 37.5147 181.35 36.96 177.681 36.96C171.964 36.96 166.759 38.4965 162.065 41.5684L161.628 41.8516C157.138 44.8172 153.529 48.9043 150.801 54.1123C148.07 59.4029 146.705 65.5468 146.705 72.5439C146.705 79.4558 148.07 85.5997 150.801 90.9756C153.617 96.2663 157.415 100.448 162.193 103.52C166.823 106.413 171.972 107.906 177.643 107.996L178.193 108C181.233 108 184.048 107.55 186.638 106.65L187.153 106.464C189.969 105.355 192.401 104.032 194.449 102.496C195.964 101.36 197.244 100.222 198.292 99.0859C198.329 101.229 199.052 103.048 200.465 104.544C201.915 105.995 203.75 106.72 205.969 106.72C208.187 106.72 210.022 105.995 211.473 104.544C212.833 103.104 213.556 101.364 213.641 99.3242L213.649 98.9121V44.7676ZM308.056 36.96C302.424 36.96 297.09 38.4102 292.056 41.3115C287.021 44.2129 282.925 48.3951 279.768 53.8564C276.696 59.2323 275.16 65.7607 275.16 73.4404C275.16 80.0109 276.568 85.8993 279.384 91.1045C282.285 96.3096 286.381 100.448 291.672 103.52C296.88 106.413 302.969 107.906 309.938 107.996L310.616 108C314.616 108 318.503 107.4 322.278 106.2L323.032 105.952C327.043 104.501 330.157 102.837 332.376 100.96C334.765 99.0828 335.96 96.9923 335.96 94.6885C335.96 92.9818 335.32 91.488 334.04 90.208C332.845 88.928 331.309 88.2881 329.432 88.2881C328.066 88.2882 326.616 88.6725 325.08 89.4404C324.141 89.9524 323.074 90.5924 321.88 91.3604L321.446 91.6123C320.392 92.191 319.043 92.7043 317.4 93.1523L317.04 93.2451C315.205 93.695 312.807 93.9199 309.848 93.9199C306.435 93.9199 303.192 93.1095 300.12 91.4883C297.134 89.7817 294.659 87.3495 292.696 84.1924C291.597 82.2934 290.822 80.1593 290.366 77.792H332.632C334.68 77.792 336.472 77.152 338.008 75.8721C339.544 74.5921 340.355 72.9279 340.44 70.8799C340.44 66.272 339.544 61.9201 337.752 57.8242C336.152 53.9843 333.99 50.5942 331.265 47.6543L330.712 47.0723C327.912 44.1122 324.699 41.7522 321.074 39.9922L320.344 39.6484C316.504 37.8564 312.408 36.96 308.056 36.96ZM352.58 12C350.362 12 348.527 12.7679 347.076 14.3037C345.626 15.7543 344.9 17.5891 344.9 19.8076V21.8193C344.519 21.755 344.127 21.7197 343.728 21.7197C339.862 21.7197 336.728 24.8539 336.728 28.7197C336.728 32.5857 339.862 35.7197 343.728 35.7197C344.127 35.7197 344.519 35.6845 344.9 35.6201V100.192C344.9 102.496 345.626 104.374 347.076 105.824C348.527 107.275 350.362 108 352.58 108C354.799 108 356.633 107.275 358.084 105.824C359.535 104.288 360.26 102.411 360.26 100.192V99.4561C361.158 100.341 362.181 101.227 363.332 102.112C365.636 103.819 368.281 105.227 371.268 106.336C374.068 107.376 377.055 107.928 380.23 107.993L380.868 108C386.489 108 391.55 106.599 396.05 103.796L396.484 103.52C401.177 100.448 404.89 96.2661 407.62 90.9756C410.436 85.5997 411.844 79.4132 411.844 72.416C411.844 65.4188 410.436 59.275 407.62 53.9844C404.975 48.859 401.368 44.8146 396.801 41.8516L396.356 41.5684C391.81 38.5923 386.662 37.0578 380.914 36.9648L380.356 36.96C377.37 36.96 374.511 37.4721 371.78 38.4961C369.135 39.5201 366.788 40.8426 364.74 42.4639C362.903 43.8415 361.41 45.254 360.26 46.7002V35.5645C360.733 35.6655 361.224 35.7197 361.728 35.7197C365.594 35.7197 368.728 32.5857 368.728 28.7197C368.727 24.8539 365.593 21.7197 361.728 21.7197C361.224 21.7197 360.733 21.774 360.26 21.875V19.8076C360.26 17.5891 359.535 15.7543 358.084 14.3037C356.633 12.7678 354.799 12 352.58 12ZM449.931 36.96C443.445 36.96 437.557 38.4964 432.267 41.5684L431.782 41.8516C426.801 44.8172 422.781 48.9043 419.723 54.1123C416.651 59.4029 415.115 65.5468 415.115 72.5439C415.115 79.5413 416.651 85.7285 419.723 91.1045C422.88 96.3949 427.062 100.533 432.267 103.52C437.557 106.506 443.445 108 449.931 108C456.416 108 462.261 106.506 467.467 103.52C472.757 100.533 476.939 96.3949 480.011 91.1045C483.168 85.7285 484.747 79.5413 484.747 72.5439C484.747 65.5467 483.168 59.4029 480.011 54.1123C476.939 48.7363 472.757 44.555 467.467 41.5684C462.261 38.4964 456.416 36.96 449.931 36.96ZM503.694 23.5195C501.476 23.5195 499.598 24.2883 498.062 25.8242C496.612 27.2749 495.886 29.1095 495.886 31.3281V39.5195H489.998C487.95 39.5195 486.243 40.203 484.878 41.5684C483.513 42.8482 482.83 44.4692 482.83 46.4316C482.83 48.4796 483.513 50.1865 484.878 51.5518C486.243 52.9171 487.95 53.5996 489.998 53.5996H495.886V88.9277C495.886 93.1091 496.526 96.3948 497.806 98.7842C499.086 101.174 500.665 102.965 502.542 104.16C504.504 105.269 506.552 105.995 508.686 106.336C510.627 106.56 512.405 106.686 514.02 106.714L514.702 106.72C517.689 106.72 520.463 105.952 523.022 104.416C525.667 102.88 526.99 100.917 526.99 98.5283C526.99 96.5657 526.478 95.0293 525.454 93.9199C524.515 92.8106 523.449 92.2559 522.254 92.2559C521.145 92.2559 520.163 92.4698 519.31 92.8965C518.456 93.2377 517.518 93.4082 516.494 93.4082L516.144 93.4004C515.448 93.3684 514.776 93.2396 514.128 93.0156L513.806 92.8965C513.038 92.5552 512.398 92.0003 511.886 91.2324C511.512 90.5603 511.302 89.7244 511.256 88.7256L511.246 88.2881V53.5996H520.334C522.382 53.5996 524.089 52.9597 525.454 51.6797C526.819 50.3145 527.502 48.6508 527.502 46.6885C527.502 44.6406 526.819 42.9337 525.454 41.5684C524.089 40.203 522.382 39.5195 520.334 39.5195H511.246V31.3281C511.246 29.1096 510.521 27.2748 509.07 25.8242C507.705 24.2883 505.913 23.5196 503.694 23.5195ZM186.929 72.5439C186.929 71.9957 186.903 71.4812 186.859 70.9971L186.289 71.2041V68.1738C186.134 67.7125 185.958 67.2902 185.764 66.9023L185.707 66.7881L185.652 66.6729C184.989 65.2727 184.209 64.4383 183.312 63.8408C182.68 63.4195 181.768 63.0401 180.113 63.04C178.604 63.04 177.719 63.3887 177.041 63.8408C176.112 64.46 175.266 65.3409 174.524 66.7803C173.877 68.1909 173.425 70.0368 173.425 72.5439C173.425 74.9228 173.86 76.7301 174.52 78.168C175.262 79.614 176.11 80.4984 177.041 81.1191C177.719 81.5712 178.604 81.9199 180.113 81.9199V93.9199L179.43 93.9092C176.266 93.8065 173.429 92.9852 170.918 91.4453L170.385 91.1045C167.745 89.3446 165.63 86.9843 164.04 84.0244L163.729 83.4238C162.193 80.1812 161.425 76.5546 161.425 72.5439C161.425 68.448 162.193 64.7788 163.729 61.5361C165.25 58.4961 167.294 56.0558 169.864 54.2158L170.385 53.8564C173.201 51.9791 176.444 51.04 180.113 51.04L180.812 51.0508C184.277 51.1608 187.329 52.0964 189.969 53.8564C192.785 55.7338 194.961 58.2935 196.497 61.5361C198.118 64.7788 198.929 68.448 198.929 72.5439C198.929 76.5546 198.118 80.1812 196.497 83.4238C194.961 86.6665 192.785 89.2272 189.969 91.1045C187.153 92.9816 183.868 93.9199 180.113 93.9199V81.9199C181.768 81.9199 182.68 81.5405 183.312 81.1191C184.209 80.5217 184.989 79.6873 185.652 78.2871L185.707 78.1719L185.764 78.0576C185.959 77.6661 186.135 77.2464 186.289 76.7949V74.7656L186.745 74.9521C186.864 74.2241 186.929 73.4255 186.929 72.5439ZM385.124 72.416C385.124 69.9319 384.643 68.2349 384.018 67.0176L383.93 66.8467L383.848 66.6729C383.184 65.2728 382.404 64.4383 381.508 63.8408L381.437 63.793L381.365 63.7441C380.894 63.4203 380.097 63.04 378.436 63.04C376.781 63.0401 375.868 63.4195 375.236 63.8408C374.294 64.4688 373.436 65.3657 372.688 66.8418C372.534 67.1642 372.39 67.5194 372.26 67.9111V72.251L371.626 71.915C371.622 72.0786 371.62 72.2456 371.62 72.416C371.62 72.6369 371.624 72.8537 371.632 73.0664L372.26 72.8037V76.9355C372.401 77.3878 372.563 77.8167 372.743 78.2246C373.479 79.6374 374.317 80.5065 375.236 81.1191C375.868 81.5405 376.781 81.9199 378.436 81.9199V93.9199C374.681 93.9198 371.396 92.9816 368.58 91.1045C365.764 89.2272 363.545 86.6665 361.924 83.4238C360.484 80.3039 359.719 76.884 359.629 73.1641L359.62 72.416C359.62 68.3201 360.388 64.6934 361.924 61.5361C363.545 58.2935 365.764 55.7338 368.58 53.8564C371.396 51.9792 374.681 51.0401 378.436 51.04L379.134 51.0508C382.594 51.1607 385.604 52.0964 388.164 53.8564C390.98 55.7338 393.156 58.2936 394.692 61.5361C396.314 64.6934 397.124 68.3201 397.124 72.416L397.114 73.1641C397.019 76.8839 396.212 80.3039 394.692 83.4238C393.156 86.6665 390.98 89.2272 388.164 91.1045L387.646 91.4453C385.026 93.0954 381.956 93.9199 378.436 93.9199V81.9199C380.097 81.9199 380.894 81.5397 381.365 81.2158L381.437 81.167L381.508 81.1191C382.404 80.5217 383.184 79.6872 383.848 78.2871L383.875 78.2275L383.904 78.168C384.663 76.6108 385.124 74.7599 385.124 72.416ZM467.519 62.9121C468.762 65.7086 469.387 68.9183 469.387 72.5439C469.387 76.8104 468.491 80.565 466.699 83.8076L466.371 84.3916C464.696 87.2717 462.459 89.5524 459.659 91.2324L459.111 91.5576C456.351 93.1327 453.291 93.9199 449.931 93.9199C446.347 93.9199 443.062 93.0242 440.075 91.2324C439.895 91.1211 439.717 91.0062 439.541 90.8896L467.519 62.9121ZM449.931 51.04C453.515 51.04 456.758 51.9356 459.659 53.7275C459.675 53.7369 459.69 53.7464 459.706 53.7559L431.989 81.4727C430.981 78.7985 430.475 75.8228 430.475 72.5439C430.475 68.192 431.329 64.4376 433.035 61.2803C434.827 58.0376 437.174 55.5195 440.075 53.7275C443.062 51.9357 446.347 51.0401 449.931 51.04ZM308.55 51.0469C311.01 51.1168 313.32 51.712 315.48 52.832L315.923 53.0449C318.113 54.1349 319.928 55.6004 321.368 57.4404C322.989 59.4029 323.885 61.6213 324.056 64.0957V64.9922H290.513C290.72 63.9317 290.978 62.95 291.288 62.0479C292.227 59.3173 293.507 57.1408 295.128 55.5195C296.648 53.9996 298.431 52.8922 300.476 52.1973L300.888 52.0645C303.106 51.3818 305.496 51.0401 308.056 51.04L308.55 51.0469ZM584.041 87.5195C584.041 83.7651 583.358 80.6929 581.993 78.3037C580.713 75.9838 579.058 74.076 577.028 72.5811L576.617 72.2881C574.537 70.8481 572.269 69.6709 569.814 68.7559L569.321 68.5762C566.676 67.6375 564.073 66.8262 561.513 66.1436C559.038 65.4609 556.691 64.7783 554.473 64.0957C552.34 63.3278 550.633 62.3894 549.354 61.2803C548.073 60.0856 547.433 58.5066 547.433 56.5439C547.433 54.4106 547.987 52.8742 549.097 51.9355C550.137 50.9756 551.327 50.3534 552.667 50.0684L552.938 50.0156C554.473 49.6744 555.881 49.5039 557.161 49.5039L557.748 49.5107C560.663 49.5757 563.241 50.1279 565.481 51.168L565.939 51.3809C568.199 52.4658 570.009 53.8886 571.369 55.6484L571.58 55.835C572.655 56.7451 573.993 57.2804 575.593 57.4404L575.91 57.4492C577.38 57.4633 578.687 57.053 579.83 56.2178L580.073 56.0322C581.865 54.5816 582.676 52.96 582.505 51.168C582.334 49.376 581.779 47.8396 580.841 46.5596C579.161 44.3997 577.106 42.6523 574.676 41.3174L574.186 41.0557C571.705 39.6956 569.112 38.7106 566.407 38.1006L565.865 37.9844C562.964 37.3017 560.19 36.96 557.545 36.96C553.364 36.96 549.353 37.7703 545.513 39.3916C541.758 41.0129 538.686 43.3171 536.297 46.3037C533.908 49.2903 532.713 52.9171 532.713 57.1836C532.713 60.9383 533.438 64.0536 534.889 66.5283C536.339 69.003 538.218 71.008 540.521 72.5439L540.955 72.8135C543.14 74.1435 545.513 75.2479 548.073 76.1279L550.169 76.8164C552.249 77.4884 554.281 78.1125 556.265 78.6885C558.825 79.3711 561.129 80.0963 563.177 80.8643L563.957 81.1602C565.73 81.8694 567.177 82.7091 568.297 83.6797C569.577 84.789 570.217 86.2828 570.217 88.1602L570.21 88.5693C570.14 90.5844 569.545 92.1123 568.425 93.1523L568.215 93.3398C567.15 94.26 565.897 94.8802 564.457 95.2002C562.921 95.4562 561.513 95.6266 560.233 95.7119L559.473 95.7041C555.963 95.6294 552.977 95.0321 550.513 93.9121L549.993 93.6641C547.263 92.2988 544.66 90.3788 542.186 87.9043C540.735 86.4536 539.241 85.685 537.705 85.5996C536.169 85.429 534.719 85.7708 533.354 86.624C531.22 87.9894 530.111 89.6109 530.025 91.4883C529.94 93.3653 530.324 94.9011 531.177 96.0957C534.505 100.533 538.686 103.648 543.721 105.44C548.441 107.04 553.161 107.89 557.881 107.99L558.825 108C562.836 108 566.761 107.232 570.601 105.696C574.201 104.176 577.239 102.019 579.714 99.2236L580.201 98.6562C582.761 95.5843 584.041 91.8715 584.041 87.5195ZM233.96 19.8076C233.96 17.5891 233.235 15.7543 231.784 14.3037C230.334 12.7678 228.499 12.0001 226.28 12C224.062 12 222.227 12.7679 220.776 14.3037C219.326 15.7543 218.6 17.5891 218.6 19.8076V98.9121C218.6 101.131 219.326 103.008 220.776 104.544C222.227 105.995 224.062 106.72 226.28 106.72C228.499 106.72 230.334 105.995 231.784 104.544C233.235 103.008 233.96 101.131 233.96 98.9121V85.4453L240.258 79.6494L263.272 104.032C264.712 105.632 266.452 106.482 268.492 106.582L268.904 106.592C270.504 106.592 272.104 105.992 273.704 104.792L274.024 104.544C275.816 103.093 276.712 101.259 276.712 99.04C276.712 96.9068 275.901 94.9869 274.28 93.2803L251.912 68.9238L271.208 51.168C273.256 49.376 274.28 47.4561 274.28 45.4082C274.28 43.8723 273.555 42.2931 272.104 40.6719C270.654 39.0506 268.947 38.2403 266.984 38.2402C264.851 38.2402 262.973 39.0505 261.352 40.6719L233.96 67.1064V19.8076ZM126.903 98.9121C126.903 101.131 127.628 103.008 129.079 104.544C130.439 105.904 132.137 106.627 134.172 106.712L134.583 106.72C136.802 106.72 138.636 105.995 140.087 104.544C141.538 103.008 142.263 101.131 142.263 98.9121V66.1436C142.263 60.7677 141.623 55.9036 140.343 51.5518C139.148 47.1146 136.887 43.573 133.559 40.9277C130.316 38.2826 125.537 36.96 119.223 36.96C116.321 36.96 113.634 37.4296 111.159 38.3682L110.698 38.5312C108.408 39.3663 106.343 40.4642 104.503 41.8242C102.54 43.2748 100.833 44.853 99.3828 46.5596C98.8706 47.1321 98.4017 47.6949 97.9746 48.2461V46.0479C97.9746 43.8293 97.2495 41.9946 95.7988 40.5439C94.3482 39.008 92.5135 38.2402 90.2949 38.2402C88.0763 38.2403 86.2417 39.008 84.791 40.5439C83.3404 41.9946 82.6153 43.8293 82.6152 46.0479V98.9121C82.6153 101.131 83.3404 103.008 84.791 104.544C86.2417 105.995 88.0763 106.72 90.2949 106.72C92.5136 106.72 94.3482 105.995 95.7988 104.544C97.1588 103.104 97.8818 101.364 97.9668 99.3242L97.9746 98.9121V66.1436C97.9747 63.3277 98.572 60.8103 99.7666 58.5918C101.047 56.2879 102.839 54.4532 105.143 53.0879C107.532 51.7226 110.433 51.0401 113.847 51.04L114.493 51.0479C117.678 51.1278 120.151 51.8078 121.911 53.0879C123.788 54.4532 125.068 56.2879 125.751 58.5918C126.519 60.8103 126.903 63.3277 126.903 66.1436V98.9121ZM245.96 38.8486L253.019 32.0371C256.685 28.4402 261.491 26.2402 266.984 26.2402L267.522 26.2471C272.876 26.3967 277.403 28.7725 280.72 32.3125L281.047 32.6709L281.535 33.2324C281.651 33.3703 281.765 33.5129 281.88 33.6562C283.212 32.6703 284.606 31.7553 286.064 30.915C292.861 26.9985 300.252 24.96 308.056 24.96C313.859 24.96 319.458 26.1173 324.73 28.4609C324.824 21.4862 328.674 15.4188 334.351 12.1914C335.287 9.88241 336.688 7.72103 338.591 5.81836C342.402 1.91669 347.355 0 352.58 0L353.079 0.00585938C358.12 0.124213 362.879 2.04109 366.569 5.81836L366.929 6.1875C368.594 7.93995 369.848 9.89886 370.722 11.9814C375.619 14.6184 379.226 19.3403 380.354 24.96H380.356C388.421 24.96 395.993 27.0501 402.716 31.3916C407.094 34.1281 410.826 37.549 413.909 41.5654C417.375 37.3993 421.509 33.9051 426.295 31.1592C433.513 26.9812 441.482 24.96 449.931 24.96C458.382 24.96 466.346 26.9835 473.522 31.208C474.528 31.7807 475.504 32.3858 476.451 33.0234C476.475 33.0001 476.5 32.9774 476.524 32.9541C478.743 30.7769 481.321 29.2709 484.086 28.4062C484.652 24.3427 486.429 20.4873 489.577 17.3389L489.939 16.9844C493.726 13.3772 498.536 11.5195 503.694 11.5195L504.194 11.5264C509.244 11.646 514.106 13.5828 517.797 17.5859C520.612 20.4991 522.281 23.9928 522.931 27.6855C526.77 28.1779 530.401 29.782 533.41 32.5752C535.667 30.9095 538.126 29.5107 540.756 28.375L540.801 28.3555L540.846 28.3369C546.167 26.09 551.766 24.96 557.545 24.96C561.185 24.96 564.845 25.4244 568.497 26.2754C572.515 27.1244 576.344 28.5539 579.955 30.5342C583.743 32.5324 587.045 35.1994 589.765 38.5068L590.313 39.1924L590.418 39.3271L590.518 39.4639C592.752 42.5105 593.949 45.9223 594.376 49.3457L594.451 50.0303L594.501 50.6738C594.887 57.2705 591.431 62.2769 587.623 65.3594L587.597 65.3809L587.569 65.4023C587.48 65.4738 587.389 65.5428 587.299 65.6123C589.313 67.597 591.018 69.8587 592.411 72.3506C592.424 72.3722 592.436 72.3944 592.448 72.416C592.465 72.4465 592.483 72.4763 592.5 72.5068C595.143 77.212 596.041 82.4618 596.041 87.5195C596.041 94.4126 593.94 100.913 589.42 106.338C585.581 110.944 580.796 114.417 575.269 116.751L575.164 116.795L575.058 116.838C569.845 118.923 564.41 120 558.825 120C552.409 120 546.074 118.908 539.868 116.805L539.782 116.775L539.697 116.745C536.888 115.745 534.262 114.456 531.828 112.896C530.978 113.572 530.093 114.175 529.195 114.705C529.146 114.735 529.097 114.765 529.048 114.794L529.047 114.793C524.66 117.39 519.805 118.72 514.702 118.72C512.355 118.72 509.88 118.553 507.311 118.257L507.05 118.227L506.79 118.186C503.187 117.609 499.788 116.387 496.638 114.606L496.364 114.452L496.1 114.284C492.142 111.766 489.27 108.262 487.229 104.45C486.951 103.932 486.695 103.406 486.458 102.874C482.882 107.339 478.525 111.045 473.438 113.928C466.27 118.041 458.337 120 449.931 120C441.523 120 433.58 118.041 426.368 113.97L426.331 113.949L426.295 113.929C421.492 111.173 417.334 107.677 413.849 103.509C410.853 107.434 407.256 110.811 403.056 113.561L403.011 113.59C396.346 117.909 388.849 120 380.868 120C376.131 120 371.506 119.225 367.09 117.585C366.087 117.213 365.102 116.81 364.136 116.376C360.697 118.844 356.683 120 352.58 120C347.465 120 342.486 118.205 338.591 114.31C337.999 113.717 337.458 113.1 336.965 112.464C333.968 114.422 330.604 115.974 327.113 117.236L327.007 117.275L326.899 117.312C321.635 119.104 316.189 120 310.616 120C301.691 120 293.299 118.151 285.845 114.01L285.745 113.955L285.646 113.897C284.816 113.416 284.007 112.911 283.217 112.387C282.701 112.906 282.153 113.403 281.574 113.871L281.548 113.893L281.521 113.914C278.292 116.497 274.022 118.592 268.904 118.592C263.249 118.592 258.248 116.275 254.545 112.269L245.604 102.795C244.917 106.466 243.233 109.898 240.508 112.783L240.391 112.908L240.27 113.029C236.374 116.925 231.395 118.72 226.28 118.72C222.722 118.72 219.231 117.85 216.124 116.011C213.017 117.85 209.526 118.72 205.969 118.72C202.308 118.72 198.718 117.799 195.544 115.849C194.25 116.498 192.917 117.091 191.552 117.629L191.459 117.665L191.366 117.7C187.146 119.283 182.714 120 178.193 120C170.162 120 162.607 117.93 155.833 113.696L155.704 113.614C154.028 112.537 152.444 111.362 150.953 110.094C150.329 111.033 149.616 111.932 148.812 112.783L148.693 112.908L148.572 113.029C144.677 116.925 139.698 118.72 134.583 118.72C129.468 118.72 124.489 116.925 120.594 113.029L120.473 112.908L120.354 112.783C116.687 108.9 114.903 104.025 114.903 98.9121V66.1436C114.903 64.7858 114.756 63.7844 114.571 63.0615C114.365 63.0494 114.124 63.04 113.847 63.04C112.195 63.0401 111.432 63.3353 111.164 63.4707C110.75 63.7318 110.505 63.9964 110.3 64.3447C110.156 64.6326 109.975 65.154 109.975 66.1436V98.9121C109.975 104.025 108.191 108.9 104.523 112.783L104.405 112.908L104.284 113.029C100.388 116.925 95.41 118.72 90.2949 118.72C85.1799 118.72 80.2013 116.925 76.3057 113.029L76.1846 112.908L76.0664 112.783C75.5488 112.235 75.0698 111.666 74.627 111.081C72.0253 112.95 69.1921 114.527 66.1572 115.818L66.1582 115.82C59.5967 118.649 52.5896 120 45.2803 120C38.3498 120 31.7708 119.16 25.666 117.307L25.5732 117.278L25.4795 117.248C18.9983 115.165 13.0772 111.664 7.70605 107.048L7.70508 107.049C7.68123 107.029 7.65757 107.008 7.63379 106.987C7.62841 106.983 7.62257 106.978 7.61719 106.974L7.61816 106.973C5.41608 105.091 3.5309 102.79 2.16309 100.055C0.915229 97.559 0.106037 94.7481 0.00976562 91.7139L0 91.1045L0.00585938 90.6299C0.119639 85.7452 1.9913 81.2855 5.30957 77.7598L5.31641 77.752L5.32422 77.7441C8.39499 74.4929 12.285 72.4955 16.5645 71.8828C15.124 70.9107 13.7506 69.8511 12.4561 68.6953L12.2871 68.5449L12.124 68.3877C8.64787 65.0402 5.94289 61.0999 4.10352 56.6328L4.08105 56.5771L4.05859 56.5205C2.2229 51.9313 1.40821 47.063 1.4082 42.0801C1.4082 34.4095 3.39328 27.1337 7.88184 20.877L7.93164 20.8076L7.98145 20.7393C12.2678 14.9401 17.9391 10.6669 24.623 7.85254C31.1226 5.11587 38.1059 3.83984 45.4082 3.83984C49.0259 3.83985 52.5673 4.14112 56.0166 4.75684C59.2436 2.22765 63.3096 0.719727 67.7275 0.719727L68.2178 0.726562C78.4845 0.98659 86.7274 9.39035 86.7275 19.7197C86.7275 20.9687 86.605 22.1894 86.375 23.3711C86.8202 24.3419 87.1928 25.3616 87.4775 26.4307C88.4042 26.3036 89.3451 26.2402 90.2949 26.2402L90.7939 26.2461C94.5964 26.3353 98.2394 27.4471 101.384 29.6094C103.229 28.5976 105.161 27.7478 107.166 27.0518C111.046 25.6182 115.1 24.96 119.223 24.96C126.905 24.96 134.806 26.5235 141.024 31.5352L141.026 31.5342C143.523 33.5185 145.625 35.8019 147.348 38.3291C149.78 35.719 152.527 33.4173 155.595 31.4619C162.255 27.1296 169.717 24.96 177.681 24.96C182.57 24.96 187.339 25.7011 191.869 27.3369C192.826 27.6825 193.767 28.0579 194.692 28.4609C198.015 26.1163 201.91 24.96 205.969 24.96C206.179 24.96 206.39 24.9636 206.6 24.9697V19.8076C206.6 14.6926 208.395 9.71394 212.291 5.81836C216.103 1.91676 221.055 0 226.28 0L226.779 0.00585938C231.82 0.124263 236.58 2.04107 240.27 5.81836L240.628 6.1875C244.275 10.026 245.96 14.8525 245.96 19.8076V38.8486Z" fill="#121215"/>
<path d="M119.223 36.96C125.538 36.96 130.316 38.2827 133.559 40.928C136.887 43.5733 139.148 47.1147 140.343 51.552C141.623 55.904 142.263 60.768 142.263 66.144V98.912C142.263 101.131 141.538 103.008 140.087 104.544C138.636 105.995 136.802 106.72 134.583 106.72C132.364 106.72 130.53 105.995 129.079 104.544C127.628 103.008 126.903 101.131 126.903 98.912V66.144C126.903 63.328 126.519 60.8107 125.751 58.592C125.068 56.288 123.788 54.4533 121.911 53.088C120.034 51.7227 117.346 51.04 113.847 51.04C110.434 51.04 107.532 51.7227 105.143 53.088C102.839 54.4533 101.047 56.288 99.767 58.592C98.5723 60.8107 97.975 63.328 97.975 66.144V98.912C97.975 101.131 97.2497 103.008 95.799 104.544C94.3483 105.995 92.5137 106.72 90.295 106.72C88.0763 106.72 86.2417 105.995 84.791 104.544C83.3403 103.008 82.615 101.131 82.615 98.912V46.048C82.615 43.8293 83.3403 41.9947 84.791 40.544C86.2417 39.008 88.0763 38.24 90.295 38.24C92.5137 38.24 94.3483 39.008 95.799 40.544C97.2497 41.9947 97.975 43.8293 97.975 46.048V51.552L96.055 51.168C96.823 49.7173 97.9323 48.1813 99.383 46.56C100.834 44.8533 102.54 43.2747 104.503 41.824C106.466 40.3733 108.684 39.2213 111.159 38.368C113.634 37.4293 116.322 36.96 119.223 36.96Z" fill="white"/>
<path d="M205.969 36.96C208.188 36.96 210.022 37.6853 211.473 39.136C212.924 40.5867 213.649 42.464 213.649 44.768V98.912C213.649 101.131 212.924 103.008 211.473 104.544C210.022 105.995 208.188 106.72 205.969 106.72C203.75 106.72 201.916 105.995 200.465 104.544C199.014 103.008 198.289 101.131 198.289 98.912V92.64L201.105 93.792C201.105 94.9013 200.508 96.2667 199.313 97.888C198.118 99.424 196.497 100.96 194.449 102.496C192.401 104.032 189.969 105.355 187.153 106.464C184.422 107.488 181.436 108 178.193 108C172.305 108 166.972 106.507 162.193 103.52C157.414 100.448 153.617 96.2667 150.801 90.976C148.07 85.6 146.705 79.456 146.705 72.544C146.705 65.5467 148.07 59.4027 150.801 54.112C153.617 48.736 157.372 44.5547 162.065 41.568C166.758 38.496 171.964 36.96 177.681 36.96C181.35 36.96 184.721 37.5147 187.793 38.624C190.865 39.7333 193.51 41.1413 195.729 42.848C198.033 44.5547 199.782 46.304 200.977 48.096C202.257 49.8027 202.897 51.2533 202.897 52.448L198.289 54.112V44.768C198.289 42.5493 199.014 40.7147 200.465 39.264C201.916 37.728 203.75 36.96 205.969 36.96ZM180.113 93.92C183.868 93.92 187.153 92.9813 189.969 91.104C192.785 89.2267 194.961 86.6667 196.497 83.424C198.118 80.1813 198.929 76.5547 198.929 72.544C198.929 68.448 198.118 64.7787 196.497 61.536C194.961 58.2933 192.785 55.7333 189.969 53.856C187.153 51.9787 183.868 51.04 180.113 51.04C176.444 51.04 173.201 51.9787 170.385 53.856C167.569 55.7333 165.35 58.2933 163.729 61.536C162.193 64.7787 161.425 68.448 161.425 72.544C161.425 76.5547 162.193 80.1813 163.729 83.424C165.35 86.6667 167.569 89.2267 170.385 91.104C173.201 92.9813 176.444 93.92 180.113 93.92Z" fill="white"/>
<path d="M226.28 106.72C224.061 106.72 222.227 105.995 220.776 104.544C219.325 103.008 218.6 101.131 218.6 98.912V19.808C218.6 17.5893 219.325 15.7547 220.776 14.304C222.227 12.768 224.061 12 226.28 12C228.499 12 230.333 12.768 231.784 14.304C233.235 15.7547 233.96 17.5893 233.96 19.808V98.912C233.96 101.131 233.235 103.008 231.784 104.544C230.333 105.995 228.499 106.72 226.28 106.72ZM266.984 38.24C268.947 38.24 270.653 39.0507 272.104 40.672C273.555 42.2933 274.28 43.872 274.28 45.408C274.28 47.456 273.256 49.376 271.208 51.168L232.68 86.624L232.04 68.96L261.352 40.672C262.973 39.0507 264.851 38.24 266.984 38.24ZM268.904 106.592C266.685 106.592 264.808 105.739 263.272 104.032L239.592 78.944L251.24 68.192L274.28 93.28C275.901 94.9867 276.712 96.9067 276.712 99.04C276.712 101.259 275.816 103.093 274.024 104.544C272.317 105.909 270.611 106.592 268.904 106.592Z" fill="white"/>
<path d="M310.616 108C303.363 108 297.048 106.507 291.672 103.52C286.381 100.448 282.285 96.3093 279.384 91.104C276.568 85.8987 275.16 80.0107 275.16 73.44C275.16 65.76 276.696 59.232 279.768 53.856C282.925 48.3947 287.021 44.2133 292.056 41.312C297.091 38.4107 302.424 36.96 308.056 36.96C312.408 36.96 316.504 37.856 320.344 39.648C324.269 41.44 327.725 43.9147 330.712 47.072C333.699 50.144 336.045 53.728 337.752 57.824C339.544 61.92 340.44 66.272 340.44 70.88C340.355 72.928 339.544 74.592 338.008 75.872C336.472 77.152 334.68 77.792 332.632 77.792H283.736L279.896 64.992H326.872L324.056 67.552V64.096C323.885 61.6213 322.989 59.4027 321.368 57.44C319.832 55.4773 317.869 53.9413 315.48 52.832C313.176 51.6373 310.701 51.04 308.056 51.04C305.496 51.04 303.107 51.3813 300.888 52.064C298.669 52.7467 296.749 53.8987 295.128 55.52C293.507 57.1413 292.227 59.3173 291.288 62.048C290.349 64.7787 289.88 68.2347 289.88 72.416C289.88 77.024 290.819 80.9493 292.696 84.192C294.659 87.3493 297.133 89.7813 300.12 91.488C303.192 93.1093 306.435 93.92 309.848 93.92C313.005 93.92 315.523 93.664 317.4 93.152C319.277 92.64 320.771 92.0427 321.88 91.36C323.075 90.592 324.141 89.952 325.08 89.44C326.616 88.672 328.067 88.288 329.432 88.288C331.309 88.288 332.845 88.928 334.04 90.208C335.32 91.488 335.96 92.9813 335.96 94.688C335.96 96.992 334.765 99.0827 332.376 100.96C330.157 102.837 327.043 104.501 323.032 105.952C319.021 107.317 314.883 108 310.616 108Z" fill="white"/>
<path d="M380.356 36.96C386.329 36.96 391.663 38.496 396.356 41.568C401.135 44.5547 404.889 48.6933 407.62 53.984C410.436 59.2747 411.844 65.4187 411.844 72.416C411.844 79.4133 410.436 85.6 407.62 90.976C404.889 96.2667 401.177 100.448 396.484 103.52C391.876 106.507 386.671 108 380.868 108C377.455 108 374.255 107.445 371.268 106.336C368.281 105.227 365.636 103.819 363.332 102.112C361.113 100.405 359.364 98.6987 358.084 96.992C356.889 95.2 356.292 93.7067 356.292 92.512L360.26 90.848V100.192C360.26 102.411 359.535 104.288 358.084 105.824C356.633 107.275 354.799 108 352.58 108C350.361 108 348.527 107.275 347.076 105.824C345.625 104.373 344.9 102.496 344.9 100.192V19.808C344.9 17.5893 345.625 15.7547 347.076 14.304C348.527 12.768 350.361 12 352.58 12C354.799 12 356.633 12.768 358.084 14.304C359.535 15.7547 360.26 17.5893 360.26 19.808V52.32L358.084 51.168C358.084 50.0587 358.681 48.736 359.876 47.2C361.071 45.5787 362.692 44 364.74 42.464C366.788 40.8427 369.135 39.52 371.78 38.496C374.511 37.472 377.369 36.96 380.356 36.96ZM378.436 51.04C374.681 51.04 371.396 51.9787 368.58 53.856C365.764 55.7333 363.545 58.2933 361.924 61.536C360.388 64.6933 359.62 68.32 359.62 72.416C359.62 76.4267 360.388 80.096 361.924 83.424C363.545 86.6667 365.764 89.2267 368.58 91.104C371.396 92.9813 374.681 93.92 378.436 93.92C382.191 93.92 385.433 92.9813 388.164 91.104C390.98 89.2267 393.156 86.6667 394.692 83.424C396.313 80.096 397.124 76.4267 397.124 72.416C397.124 68.32 396.313 64.6933 394.692 61.536C393.156 58.2933 390.98 55.7333 388.164 53.856C385.433 51.9787 382.191 51.04 378.436 51.04Z" fill="#3C90FF"/>
<path d="M484.747 72.544C484.747 79.5413 483.168 85.728 480.011 91.104C476.939 96.3947 472.758 100.533 467.467 103.52C462.262 106.507 456.416 108 449.931 108C443.446 108 437.558 106.507 432.267 103.52C427.062 100.533 422.88 96.3947 419.723 91.104C416.651 85.728 415.115 79.5413 415.115 72.544C415.115 65.5467 416.651 59.4027 419.723 54.112C422.88 48.736 427.062 44.5547 432.267 41.568C437.558 38.496 443.446 36.96 449.931 36.96C456.416 36.96 462.262 38.496 467.467 41.568C472.758 44.5547 476.939 48.736 480.011 54.112C483.168 59.4027 484.747 65.5467 484.747 72.544ZM469.387 72.544C469.387 68.192 468.491 64.4373 466.699 61.28C464.992 58.0373 462.646 55.52 459.659 53.728C456.758 51.936 453.515 51.04 449.931 51.04C446.347 51.04 443.062 51.936 440.075 53.728C437.174 55.52 434.827 58.0373 433.035 61.28C431.328 64.4373 430.475 68.192 430.475 72.544C430.475 76.8107 431.328 80.5653 433.035 83.808C434.827 86.9653 437.174 89.44 440.075 91.232C443.062 93.024 446.347 93.92 449.931 93.92C453.515 93.92 456.758 93.024 459.659 91.232C462.646 89.44 464.992 86.9653 466.699 83.808C468.491 80.5653 469.387 76.8107 469.387 72.544Z" fill="white"/>
<path d="M489.998 39.52H520.334C522.382 39.52 524.089 40.2027 525.454 41.568C526.819 42.9333 527.502 44.64 527.502 46.688C527.502 48.6507 526.819 50.3147 525.454 51.68C524.089 52.96 522.382 53.6 520.334 53.6H489.998C487.95 53.6 486.243 52.9173 484.878 51.552C483.513 50.1867 482.83 48.48 482.83 46.432C482.83 44.4693 483.513 42.848 484.878 41.568C486.243 40.2027 487.95 39.52 489.998 39.52ZM503.694 23.52C505.913 23.52 507.705 24.288 509.07 25.824C510.521 27.2747 511.246 29.1093 511.246 31.328V88.288C511.246 89.4827 511.459 90.464 511.886 91.232C512.398 92 513.038 92.5547 513.806 92.896C514.659 93.2373 515.555 93.408 516.494 93.408C517.518 93.408 518.457 93.2373 519.31 92.896C520.163 92.4693 521.145 92.256 522.254 92.256C523.449 92.256 524.515 92.8107 525.454 93.92C526.478 95.0293 526.99 96.5653 526.99 98.528C526.99 100.917 525.667 102.88 523.022 104.416C520.462 105.952 517.689 106.72 514.702 106.72C512.91 106.72 510.905 106.592 508.686 106.336C506.553 105.995 504.505 105.269 502.542 104.16C500.665 102.965 499.086 101.173 497.806 98.784C496.526 96.3947 495.886 93.1093 495.886 88.928V31.328C495.886 29.1093 496.611 27.2747 498.062 25.824C499.598 24.288 501.475 23.52 503.694 23.52Z" fill="white"/>
<path d="M531.177 96.096C530.324 94.9013 529.94 93.3653 530.025 91.488C530.11 89.6107 531.22 87.9893 533.353 86.624C534.718 85.7707 536.169 85.4293 537.705 85.6C539.241 85.6853 540.734 86.4533 542.185 87.904C544.66 90.3787 547.262 92.2987 549.993 93.664C552.724 95.0293 556.137 95.712 560.233 95.712C561.513 95.6267 562.921 95.456 564.457 95.2C565.993 94.8587 567.316 94.176 568.425 93.152C569.62 92.0427 570.217 90.3787 570.217 88.16C570.217 86.2827 569.577 84.7893 568.297 83.68C567.017 82.5707 565.31 81.632 563.177 80.864C561.129 80.096 558.825 79.3707 556.265 78.688C553.62 77.92 550.889 77.0667 548.073 76.128C545.342 75.1893 542.825 73.9947 540.521 72.544C538.217 71.008 536.34 69.0027 534.889 66.528C533.438 64.0533 532.713 60.9387 532.713 57.184C532.713 52.9173 533.908 49.2907 536.297 46.304C538.686 43.3173 541.758 41.0133 545.513 39.392C549.353 37.7707 553.364 36.96 557.545 36.96C560.19 36.96 562.964 37.3013 565.865 37.984C568.766 38.5813 571.54 39.6053 574.185 41.056C576.83 42.4213 579.049 44.256 580.841 46.56C581.78 47.84 582.334 49.376 582.505 51.168C582.676 52.96 581.865 54.5813 580.073 56.032C578.793 57.056 577.3 57.5253 575.593 57.44C573.886 57.2693 572.478 56.672 571.369 55.648C569.918 53.7707 567.956 52.2773 565.481 51.168C563.092 50.0587 560.318 49.504 557.161 49.504C555.881 49.504 554.473 49.6747 552.937 50.016C551.486 50.272 550.206 50.912 549.097 51.936C547.988 52.8747 547.433 54.4107 547.433 56.544C547.433 58.5067 548.073 60.0853 549.353 61.28C550.633 62.3893 552.34 63.328 554.473 64.096C556.692 64.7787 559.038 65.4613 561.513 66.144C564.073 66.8267 566.676 67.6373 569.321 68.576C571.966 69.5147 574.398 70.752 576.617 72.288C578.836 73.824 580.628 75.8293 581.993 78.304C583.358 80.6933 584.041 83.7653 584.041 87.52C584.041 91.872 582.761 95.584 580.201 98.656C577.641 101.728 574.441 104.075 570.601 105.696C566.761 107.232 562.836 108 558.825 108C553.79 108 548.756 107.147 543.721 105.44C538.686 103.648 534.505 100.533 531.177 96.096Z" fill="white"/>
<path d="M45.28 108C39.3067 108 33.9307 107.275 29.152 105.824C24.3733 104.288 19.808 101.643 15.456 97.888C14.3467 96.9493 13.4933 95.8827 12.896 94.688C12.2987 93.4933 12 92.2987 12 91.104C12 89.1413 12.6827 87.4347 14.048 85.984C15.4987 84.448 17.2907 83.68 19.424 83.68C21.0453 83.68 22.496 84.192 23.776 85.216C27.0187 87.8613 30.2187 89.8667 33.376 91.232C36.6187 92.5973 40.5867 93.28 45.28 93.28C48.4373 93.28 51.3387 92.8107 53.984 91.872C56.6293 90.848 58.7627 89.5253 60.384 87.904C62.0053 86.1973 62.816 84.2773 62.816 82.144C62.816 79.584 62.048 77.408 60.512 75.616C58.976 73.824 56.6293 72.3307 53.472 71.136C50.3147 69.856 46.304 68.8747 41.44 68.192C36.832 67.5093 32.7787 66.4853 29.28 65.12C25.7813 63.6693 22.8373 61.8773 20.448 59.744C18.144 57.5253 16.3947 54.9653 15.2 52.064C14.0053 49.0773 13.408 45.7493 13.408 42.08C13.408 36.5333 14.816 31.7973 17.632 27.872C20.5333 23.9467 24.416 20.96 29.28 18.912C34.144 16.864 39.52 15.84 45.408 15.84C50.9547 15.84 56.0747 16.6933 60.768 18.4C65.5467 20.0213 69.4293 22.112 72.416 24.672C74.8907 26.6347 76.128 28.896 76.128 31.456C76.128 33.3333 75.4027 35.04 73.952 36.576C72.5013 38.112 70.7947 38.88 68.832 38.88C67.552 38.88 66.4 38.496 65.376 37.728C64.0107 36.5333 62.176 35.424 59.872 34.4C57.568 33.2907 55.136 32.3947 52.576 31.712C50.016 30.944 47.6267 30.56 45.408 30.56C41.7387 30.56 38.624 31.0293 36.064 31.968C33.5893 32.9067 31.712 34.1867 30.432 35.808C29.152 37.4293 28.512 39.3067 28.512 41.44C28.512 44 29.2373 46.1333 30.688 47.84C32.224 49.4613 34.4 50.784 37.216 51.808C40.032 52.7467 43.4027 53.6 47.328 54.368C52.448 55.3067 56.928 56.416 60.768 57.696C64.6933 58.976 67.936 60.64 70.496 62.688C73.056 64.6507 74.976 67.168 76.256 70.24C77.536 73.2267 78.176 76.896 78.176 81.248C78.176 86.7947 76.64 91.5733 73.568 95.584C70.496 99.5947 66.4427 102.667 61.408 104.8C56.4587 106.933 51.0827 108 45.28 108Z" fill="#3EE831"/>
<path d="M64.7275 34.72C64.7275 38.586 61.5935 41.72 57.7275 41.72C53.8615 41.72 50.7275 38.586 50.7275 34.72C50.7275 30.854 53.8615 27.72 57.7275 27.72C61.5935 27.72 64.7275 30.854 64.7275 34.72Z" fill="white"/>
<path d="M74.7275 19.72C74.7275 23.586 71.5935 26.72 67.7275 26.72C63.8615 26.72 60.7275 23.586 60.7275 19.72C60.7275 15.854 63.8615 12.72 67.7275 12.72C71.5935 12.72 74.7275 15.854 74.7275 19.72Z" fill="white"/>
<path d="M71.7275 21.22C71.7275 23.153 70.1605 24.72 68.2275 24.72C66.2945 24.72 64.7275 23.153 64.7275 21.22C64.7275 19.287 66.2945 17.72 68.2275 17.72C70.1605 17.72 71.7275 19.287 71.7275 21.22Z" fill="black"/>
<path d="M350.728 28.72C350.728 32.586 347.594 35.72 343.728 35.72C339.862 35.72 336.728 32.586 336.728 28.72C336.728 24.854 339.862 21.72 343.728 21.72C347.594 21.72 350.728 24.854 350.728 28.72Z" fill="white"/>
<path d="M347.728 27.22C347.728 29.153 346.161 30.72 344.228 30.72C342.295 30.72 340.728 29.153 340.728 27.22C340.728 25.287 342.295 23.72 344.228 23.72C346.161 23.72 347.728 25.287 347.728 27.22Z" fill="black"/>
<path d="M368.728 28.72C368.728 32.586 365.594 35.72 361.728 35.72C357.862 35.72 354.728 32.586 354.728 28.72C354.728 24.854 357.862 21.72 361.728 21.72C365.594 21.72 368.728 24.854 368.728 28.72Z" fill="white"/>
<path d="M364.728 27.22C364.728 29.153 363.161 30.72 361.228 30.72C359.295 30.72 357.728 29.153 357.728 27.22C357.728 25.287 359.295 23.72 361.228 23.72C363.161 23.72 364.728 25.287 364.728 27.22Z" fill="black"/>
<path d="M62.7275 35.22C62.7275 37.153 61.1605 38.72 59.2275 38.72C57.2945 38.72 55.7275 37.153 55.7275 35.22C55.7275 33.287 57.2945 31.72 59.2275 31.72C61.1605 31.72 62.7275 33.287 62.7275 35.22Z" fill="black"/>
<path d="M471.47 58.9622L434.97 95.4622L426.485 86.9778L462.985 50.4778L471.47 58.9622Z" fill="white"/>
</svg>
